<?xml version="1.0" encoding="UTF-8" standalone="no"?>
<!-- Created with Inkscape (http://www.inkscape.org/) -->

<svg
   width="950.4046mm"
   height="97.96772mm"
   viewBox="0 0 950.4046 97.96772"
   version="1.1"
   id="svg1"
   xml:space="preserve"
   sodipodi:docname="logo_decathlon_coach.svg"
   inkscape:version="1.4-beta3 (01c8a1c, 2024-08-28, custom)"
   xmlns:inkscape="http://www.inkscape.org/namespaces/inkscape"
   xmlns:sodipodi="http://sodipodi.sourceforge.net/DTD/sodipodi-0.dtd"
   xmlns="http://www.w3.org/2000/svg"
   xmlns:svg="http://www.w3.org/2000/svg"><sodipodi:namedview
     id="namedview1"
     pagecolor="#505050"
     bordercolor="#eeeeee"
     borderopacity="1"
     inkscape:showpageshadow="0"
     inkscape:pageopacity="0"
     inkscape:pagecheckerboard="0"
     inkscape:deskcolor="#505050"
     inkscape:document-units="mm"
     inkscape:zoom="0.49831848"
     inkscape:cx="2597.7363"
     inkscape:cy="185.62426"
     inkscape:window-width="1920"
     inkscape:window-height="1046"
     inkscape:window-x="-11"
     inkscape:window-y="1609"
     inkscape:window-maximized="1"
     inkscape:current-layer="layer1"><inkscape:page
       x="0"
       y="0"
       width="950.4046"
       height="97.96772"
       id="page2"
       margin="0"
       bleed="0" /></sodipodi:namedview><defs
     id="defs1"><inkscape:path-effect
       effect="powerclip"
       message=""
       id="path-effect18"
       is_visible="true"
       lpeversion="1"
       inverse="true"
       flatten="false"
       hide_clip="false" /><inkscape:path-effect
       effect="powerclip"
       message=""
       id="path-effect15"
       is_visible="true"
       lpeversion="1"
       inverse="true"
       flatten="false"
       hide_clip="false" /><clipPath
       clipPathUnits="userSpaceOnUse"
       id="clipPath15"><path
         style="display:none;fill:#d742b8;fill-opacity:1;stroke-width:5.21295;stroke-linecap:round;stroke-linejoin:round"
         id="path15"
         sodipodi:type="arc"
         sodipodi:cx="381.46048"
         sodipodi:cy="-70.443451"
         sodipodi:rx="13.703556"
         sodipodi:ry="13.703556"
         sodipodi:start="0"
         sodipodi:end="6.2535677"
         sodipodi:open="true"
         sodipodi:arc-type="arc"
         d="m 395.16404,-70.443451 a 13.703556,13.703556 0 0 1 -13.60209,13.70318 13.703556,13.703556 0 0 1 -13.80352,-13.500254 13.703556,13.703556 0 0 1 13.39767,-13.903101 13.703556,13.703556 0 0 1 14.00193,13.294368" /><path
         id="lpe_path-effect15"
         style="fill:#d742b8;fill-opacity:1;stroke-width:5.21295;stroke-linecap:round;stroke-linejoin:round"
         class="powerclip"
         d="m 352.27773,-99.6262 h 58.3655 v 58.365498 h -58.3655 z m 42.8803,28.776942 a 13.703556,13.703556 0 0 0 -14.00193,-13.294368 13.703556,13.703556 0 0 0 -13.39767,13.903101 13.703556,13.703556 0 0 0 13.80352,13.500254 13.703556,13.703556 0 0 0 13.60209,-13.70318" /></clipPath><clipPath
       clipPathUnits="userSpaceOnUse"
       id="clipPath17"><path
         style="display:none;fill:#3642b8;fill-opacity:0.545648;stroke-width:10;stroke-linecap:round;stroke-linejoin:round"
         d="m 426.28815,-75.19044 c 0.0896,0.06717 -7.70528,12.545542 -7.70528,12.545542 l 7.61572,0.17913 z"
         id="path18"
         sodipodi:nodetypes="cccc" /><path
         id="lpe_path-effect18"
         style="fill:#3642b8;fill-opacity:0.545648;stroke-width:10;stroke-linecap:round;stroke-linejoin:round"
         class="powerclip"
         d="m 393.50038,-98.681541 h 48.93871 v 57.196922 h -48.93871 z m 32.78777,23.491101 c 0.0896,0.06717 -7.70528,12.545542 -7.70528,12.545542 l 7.61572,0.17913 z" /></clipPath></defs><g
     inkscape:label="Calque 1"
     inkscape:groupmode="layer"
     id="layer1"
     transform="translate(380.0983,124.20755)"><g
       id="g1"
       transform="matrix(0.35277778,0,0,0.35277778,-399.66326,-143.78011)"
       style="fill:#3643ba;fill-opacity:1"
       inkscape:export-filename="logo_decathlon_coach.png"
       inkscape:export-xdpi="27.366869"
       inkscape:export-ydpi="27.366869"><path
         fill="#3642b8"
         stroke="#3642b8"
         stroke-width="0.09375"
         opacity="1"
         d="m 260.85,59.78 c 26.17,-5.17 54.19,-7.06 79.56,2.71 12.36,5.25 24.46,12.6 32.24,23.85 11.76,15.69 13.55,36.66 11.2,55.53 -5.96,35.79 -25.86,67.6 -49.72,94.27 -12.01,12.37 -23.82,25.18 -37.9,35.26 -0.07,-18.72 -0.96,-37.49 0.15,-56.18 6.29,-9.15 14.92,-16.41 21.3,-25.51 14.03,-18.95 26.65,-40.38 28.78,-64.38 1.44,-10.14 -1.12,-20.64 -6.57,-29.25 -7.93,-11.67 -21.7,-17.78 -35.34,-19.53 -25.84,-4.22 -51.72,3.06 -75.68,12.27 -41.12,16.84 -78.39,42.88 -108.5,75.54 -17.02,18.55 -31.6,40.14 -38.42,64.6 -2.18,9.42 -3.65,19.3 -1.76,28.91 1.75,8.47 8.28,16.57 17.25,17.58 15.01,3.06 28.98,-5.02 40.74,-13.29 23.11,-18.1 42.06,-40.8 60.49,-63.47 22.5,-28.58 43.99,-58.01 63.2,-88.92 0.22,61.99 0.22,123.97 0,185.96 -37.71,21.4 -79.82,38.32 -123.88,37.37 -24.35,0.17 -50.25,-7.53 -66.71,-26.37 -11.26,-12.07 -15.26,-28.99 -15.76,-45.05 -0.41,-23.85 8.61,-46.71 19.93,-67.29 20.72,-35.28 50.28,-64.85 83.63,-88.28 30.62,-21.59 65.06,-38.28 101.77,-46.33 z"
         id="path1"
         style="fill:#3643ba;fill-opacity:1" /><path
         fill="#3642b8"
         stroke="#3642b8"
         stroke-width="0.09375"
         opacity="1"
         d="m 775.25,125.24 c 19.85,-25.5 54.54,-35.36 85.72,-31.2 16.69,2.25 33.13,8.76 45.32,20.66 15.14,14.69 22.99,35.54 25.03,56.24 -16.43,0.1 -32.85,0.11 -49.26,0.04 -3,-10.18 -6.26,-21.15 -15.4,-27.61 -15.57,-9.42 -37.88,-6.5 -49.93,7.37 -6.76,7.24 -9.92,17.05 -11.17,26.7 -0.97,13.94 -1.98,28.58 3.03,41.93 3.96,10.29 10.24,20.54 20.42,25.64 16.39,8.57 37.24,7.74 52.94,-2.06 14,-8.77 24.61,-21.97 33.03,-35.99 C 938,170.31 960.81,133.53 984.01,97 c 23.32,-0.01 46.64,-0.03 69.97,0.03 0.03,64.98 0.03,129.96 0,194.95 -16.32,0.04 -32.62,0.06 -48.93,0.01 -0.05,-11.9 -0.03,-23.79 -0.38,-35.67 -22.16,-0.27 -44.36,-0.93 -66.5,-0.01 -8.54,6.31 -14.93,15.14 -23.87,21.01 -14.79,10.25 -32.4,16.33 -50.34,17.58 -26.6,2.94 -55.02,-2.64 -76.34,-19.48 -14.42,-11.08 -23.9,-27.51 -29.23,-44.68 -9.54,-35.21 -6.4,-76.14 16.86,-105.5 m 185.63,91.72 c 14.7,0.09 29.39,0.06 44.1,0.02 -0.06,-23.47 0.33,-46.95 -0.32,-70.41 -15.09,23.14 -29.15,46.95 -43.78,70.39 z"
         id="path2"
         style="fill:#3643ba;fill-opacity:1" /><path
         fill="#3642b8"
         stroke="#3642b8"
         stroke-width="0.09375"
         opacity="1"
         d="m 1621.41,93.43 c 28.85,-2.01 59.3,7.32 79.4,28.76 20.55,21.98 27.42,53.47 25.19,82.8 -1.77,29.48 -16.05,59.44 -41.67,75.35 -30.2,18.78 -70.06,20.13 -102.23,5.55 -17.04,-8.24 -31.46,-22.01 -40.09,-38.88 -10.21,-18.48 -12.49,-40.25 -11.91,-61.02 1.38,-25.24 11.35,-50.45 29.82,-68.07 16.72,-15.26 39.04,-23.35 61.49,-24.49 m 0.03,45.08 c -13.4,1.06 -25.71,9 -32.29,20.66 -8.95,15.95 -9.57,35.32 -6.28,52.95 2.11,11.95 7.91,23.83 18.2,30.79 13.65,9.94 32.39,9.84 47.64,3.84 15.78,-6.71 24.33,-23.76 25.83,-40.15 1.64,-18.89 0.43,-40.43 -12.82,-55.35 -10.11,-10.9 -25.89,-14.86 -40.28,-12.74 z"
         id="path3"
         style="fill:#3643ba;fill-opacity:1" /><path
         fill="#3642b8"
         stroke="#3642b8"
         stroke-width="0.09375"
         opacity="1"
         d="m 440.02,97.02 c 25,0.03 49.99,-0.16 75,0 28.36,0.15 57.76,11.67 74.96,34.96 11.6,15.79 17.37,35.17 18.52,54.59 1.31,20.79 -2.23,42.25 -12.26,60.67 -8.94,15.57 -22.66,28.64 -39.26,35.74 -15.82,7.6 -33.69,8.91 -50.97,9.04 -22,0.08 -44,-0.06 -65.99,-0.04 -0.03,-64.98 -0.04,-129.97 0,-194.96 m 50.21,42.26 c -0.56,36.57 -0.09,73.15 -0.21,109.73 10.28,0.03 20.58,0.42 30.86,-0.4 12.09,-1.29 23.53,-8.71 28.99,-19.68 7.96,-13.41 8.8,-29.77 7.26,-44.91 -1.35,-13.42 -6.07,-27.5 -17.09,-36.05 -13.97,-11.07 -33.19,-9.05 -49.81,-8.69 z"
         id="path4"
         style="fill:#3643ba;fill-opacity:1" /><path
         fill="#3642b8"
         stroke="#3642b8"
         stroke-width="0.09375"
         opacity="1"
         d="m 620.02,97.02 c 43.89,0.12 87.78,-0.36 131.66,0.25 0.43,13.9 0.36,27.81 0.31,41.71 -27.33,0.08 -54.66,-0.04 -81.99,0.04 -0.02,11.99 -0.02,23.97 0.01,35.97 23.99,0.05 47.99,-0.03 71.99,0.02 0,12.99 0.03,25.99 -0.01,38.98 -24,0.05 -48,-0.03 -72,0.02 -0.01,11.66 0,23.31 0.01,34.97 27.23,0.2 54.46,-0.32 81.69,0.29 0.45,14.13 0.44,28.27 0.04,42.41 -43.9,0.72 -87.81,0.15 -131.71,0.3 -0.03,-64.99 -0.04,-129.97 0,-194.96 z"
         id="path5"
         style="fill:#3643ba;fill-opacity:1" /><path
         fill="#3642b8"
         stroke="#3642b8"
         stroke-width="0.09375"
         opacity="1"
         d="m 1067.01,97.01 c 49.33,-0.02 98.65,-0.02 147.98,0 0.02,13.99 0.03,27.98 0,41.98 -16.34,0.03 -32.66,-0.01 -48.98,0.02 -0.06,51 0.03,101.99 -0.02,152.98 -16.67,0.03 -33.32,0.04 -49.97,-0.01 -0.07,-50.99 0.02,-101.98 -0.03,-152.97 -16.34,-0.03 -32.66,0.01 -48.98,-0.02 -0.04,-14 -0.04,-27.99 0,-41.98 z"
         id="path6"
         style="fill:#3643ba;fill-opacity:1" /><path
         fill="#3642b8"
         stroke="#3642b8"
         stroke-width="0.09375"
         opacity="1"
         d="m 1227.01,97.01 c 16.65,-0.04 33.3,-0.04 49.96,0.01 0.08,24.65 -0.03,49.31 0.05,73.96 22.65,0.05 45.3,0.04 67.97,0 0.06,-24.65 -0.05,-49.31 0.03,-73.97 16.64,-0.04 33.3,-0.04 49.96,0.01 0.03,64.99 0.03,129.97 0,194.96 -16.66,0.05 -33.31,0.05 -49.95,0 -0.22,-26.22 0.3,-52.44 -0.26,-78.65 -22.48,-0.56 -44.97,-0.51 -67.44,-0.05 -0.71,26.22 -0.15,52.46 -0.35,78.7 -16.56,0 -33.11,0.26 -49.66,-0.21 -0.74,-64.92 -0.13,-129.84 -0.31,-194.76 z"
         id="path7"
         style="fill:#3643ba;fill-opacity:1" /><path
         fill="#3642b8"
         stroke="#3642b8"
         stroke-width="0.09375"
         opacity="1"
         d="m 1409.02,97.02 c 16.64,-0.05 33.3,-0.05 49.96,0 0.22,50.88 -0.33,101.77 0.26,152.66 25.24,0.68 50.5,0.15 75.76,0.34 0.03,13.89 0.1,27.77 -0.27,41.66 -41.9,0.72 -83.81,0.16 -125.71,0.3 -0.04,-64.99 -0.04,-129.97 0,-194.96 z"
         id="path8"
         style="fill:#3643ba;fill-opacity:1" /><path
         fill="#3642b8"
         stroke="#3642b8"
         stroke-width="0.09375"
         opacity="1"
         d="m 1738.02,97.03 c 17.21,-0.07 34.43,-0.13 51.65,0.11 21.33,35.41 42.5,70.93 64.06,106.21 0.61,-35.44 0.08,-70.89 0.29,-106.34 15.97,-0.03 31.97,-0.04 47.97,0 0.01,64.99 0.03,129.98 -0.01,194.97 -16.3,0.04 -32.58,0.08 -48.85,-0.02 -22.19,-37.16 -44.16,-74.45 -66.95,-111.23 -0.43,37.08 -0.04,74.17 -0.2,111.26 -16,0.03 -31.99,0.04 -47.97,0 -0.02,-64.99 -0.03,-129.97 0.01,-194.96 z"
         id="path9"
         style="fill:#3643ba;fill-opacity:1" /></g><g
       id="g19"
       transform="matrix(1.4352057,0,0,1.4352057,-175.38469,26.466544)"
       style="fill:#505050;fill-opacity:1"><path
         style="fill:#505050;fill-opacity:1;stroke-width:10;stroke-linecap:round;stroke-linejoin:round"
         d="m 351.72467,-79.534379 5.10524,-9.941795 c -4.7022,-4.075241 -11.59875,-5.329162 -15.76356,-5.194813 -2.82132,0.223914 -23.86928,1.836096 -24.00363,24.98884 0.71656,19.077503 17.86838,23.152744 24.89929,23.197526 12.18094,-0.447829 17.64444,-6.986127 17.64444,-6.986127 l -5.01568,-9.583534 c -6.44873,5.508293 -8.37441,5.553076 -12.49443,5.956122 0,0 -13.03179,-0.80609 -13.12136,-13.12138 -0.0448,-11.330066 9.94177,-13.0766 13.92745,-13.255732 4.16481,-0.04478 8.82224,3.940893 8.82224,3.940893 z"
         id="path10"
         sodipodi:nodetypes="ccccccccccc" /><path
         style="fill:#505050;fill-opacity:1;stroke-width:10;stroke-linecap:round;stroke-linejoin:round"
         d="m 477.31804,-76.462728 5.45357,-9.340136 c -4.7022,-4.075241 -7.7038,-8.210793 -18.74019,-8.329774 -3.83464,0.0023 -24.53427,1.582766 -24.66862,24.73551 0.71656,19.077503 18.53337,23.406074 25.56428,23.450856 12.18094,-0.447829 18.18277,-9.044435 18.18277,-9.044435 l -5.77567,-9.36187 c -6.44873,5.508293 -8.97607,6.978058 -13.09609,7.381104 0,0 -13.06346,-0.236097 -13.15303,-12.551387 -0.0448,-11.330066 10.44843,-13.456595 14.78244,-13.414063 4.16481,-0.04478 11.45054,6.474195 11.45054,6.474195 z"
         id="path10-1"
         sodipodi:nodetypes="ccccccccccc" /><path
         style="fill:#505050;fill-opacity:1;stroke-width:10;stroke-linecap:round;stroke-linejoin:round"
         d="m 484.26566,-93.881662 0.285,47.038779 11.56484,-0.06333 v -17.913149 l 11.99094,0.06333 v 18.003647 h 11.46442 v -47.123708 h -11.10615 v 17.834778 H 495.9255 v -17.823582 z"
         id="path11"
         sodipodi:nodetypes="ccccccccccccc" /><path
         style="fill:#505050;fill-opacity:1;stroke-width:9.19932;stroke-linecap:round;stroke-linejoin:round"
         id="path12"
         sodipodi:type="arc"
         sodipodi:cx="381.46048"
         sodipodi:cy="-70.443451"
         sodipodi:rx="24.182749"
         sodipodi:ry="24.182749"
         sodipodi:start="0"
         sodipodi:end="6.2535677"
         sodipodi:open="true"
         sodipodi:arc-type="arc"
         d="m 405.64323,-70.443451 a 24.182749,24.182749 0 0 1 -24.00369,24.182086 24.182749,24.182749 0 0 1 -24.35916,-23.823981 24.182749,24.182749 0 0 1 23.64297,-24.534888 24.182749,24.182749 0 0 1 24.70927,23.460653"
         clip-path="url(#clipPath15)"
         inkscape:path-effect="#path-effect15" /><path
         style="fill:#505050;fill-opacity:1;stroke-width:10;stroke-linecap:round;stroke-linejoin:round"
         d="m 398.50038,-46.507012 26.70593,-47.174529 h 12.23278 v 47.196922 h -10.83747 v -7.613089 h -11.55398 l -4.43414,7.526622 z"
         id="path16"
         sodipodi:nodetypes="ccccccccc"
         clip-path="url(#clipPath17)"
         inkscape:path-effect="#path-effect18"
         inkscape:original-d="m 398.50038,-46.507012 26.70593,-47.174529 h 12.23278 v 47.196922 h -10.83747 v -7.613089 h -11.55398 l -4.43414,7.526622 z" /></g></g></svg>
